<svg width="25" height="25" viewBox="0 0 25 25" fill="none" xmlns="http://www.w3.org/2000/svg">
<path d="M18.9629 15.3271C18.9251 15.308 18.8928 15.2797 18.869 15.2447C18.8452 15.2097 18.8307 15.1692 18.8269 15.1271L18.3269 9.66105C18.1851 8.1147 17.4706 6.67713 16.3236 5.63043C15.1765 4.58373 13.6797 4.00345 12.1269 4.00345C10.5741 4.00345 9.07728 4.58373 7.93023 5.63043C6.78318 6.67713 6.06867 8.1147 5.9269 9.66105L5.4289 15.1281C5.42529 15.1703 5.41088 15.2108 5.38706 15.2458C5.36324 15.2809 5.33082 15.3092 5.2929 15.3281C4.70631 15.6301 4.24921 16.1347 4.00645 16.7482C3.7637 17.3617 3.75178 18.0424 3.9729 18.6641C4.15144 19.2002 4.49463 19.6663 4.95358 19.996C5.41253 20.3256 5.96383 20.502 6.5289 20.5001H17.7339C18.3439 20.491 18.9334 20.2788 19.4092 19.897C19.885 19.5153 20.2199 18.9858 20.3609 18.3923C20.5019 17.7988 20.441 17.1752 20.1878 16.6202C19.9346 16.0652 19.5036 15.6095 18.9629 15.3271ZM10.1289 23.2481C9.86369 23.2481 9.60933 23.1427 9.4218 22.9552C9.23426 22.7676 9.1289 22.5133 9.1289 22.2481C9.1289 21.9828 9.23426 21.7285 9.4218 21.5409C9.60933 21.3534 9.86369 21.2481 10.1289 21.2481H14.1289C14.3941 21.2481 14.6485 21.3534 14.836 21.5409C15.0235 21.7285 15.1289 21.9828 15.1289 22.2481C15.1289 22.5133 15.0235 22.7676 14.836 22.9552C14.6485 23.1427 14.3941 23.2481 14.1289 23.2481H10.1289Z" fill="black"/>
<path d="M14.1289 22.998H10.1289C9.92999 22.998 9.73923 22.919 9.59858 22.7784C9.45792 22.6377 9.37891 22.447 9.37891 22.248C9.37891 22.0491 9.45792 21.8584 9.59858 21.7177C9.73923 21.5771 9.92999 21.498 10.1289 21.498H14.1289C14.3278 21.498 14.5186 21.5771 14.6592 21.7177C14.7999 21.8584 14.8789 22.0491 14.8789 22.248C14.8789 22.447 14.7999 22.6377 14.6592 22.7784C14.5186 22.919 14.3278 22.998 14.1289 22.998ZM12.1289 5.74805C11.8637 5.74805 11.6093 5.64269 11.4218 5.45515C11.2343 5.26762 11.1289 5.01326 11.1289 4.74805V2.74805C11.1289 2.48283 11.2343 2.22848 11.4218 2.04094C11.6093 1.8534 11.8637 1.74805 12.1289 1.74805C12.3941 1.74805 12.6485 1.8534 12.836 2.04094C13.0235 2.22848 13.1289 2.48283 13.1289 2.74805V4.74805C13.1289 5.01326 13.0235 5.26762 12.836 5.45515C12.6485 5.64269 12.3941 5.74805 12.1289 5.74805Z" fill="black"/>
<path d="M12.1289 5.49805C11.93 5.49805 11.7392 5.41903 11.5986 5.27838C11.4579 5.13772 11.3789 4.94696 11.3789 4.74805V2.74805C11.3789 2.54913 11.4579 2.35837 11.5986 2.21772C11.7392 2.07706 11.93 1.99805 12.1289 1.99805C12.3278 1.99805 12.5186 2.07706 12.6592 2.21772C12.7999 2.35837 12.8789 2.54913 12.8789 2.74805V4.74805C12.8789 4.94696 12.7999 5.13772 12.6592 5.27838C12.5186 5.41903 12.3278 5.49805 12.1289 5.49805Z" fill="black"/>
</svg>
