<svg width="21" height="20" viewBox="0 0 21 20" fill="none" xmlns="http://www.w3.org/2000/svg">
<g clip-path="url(#clip0_1_1651)">
<path d="M0.00348788 6.29156H20.4616V6.78407C20.4616 10.356 20.4616 13.927 20.4616 17.4989C20.4616 18.8621 19.5786 19.7412 18.1892 19.7455C15.9032 19.7513 13.618 19.7471 11.332 19.7471C8.22807 19.7471 5.12417 19.7471 2.01942 19.7471C0.667279 19.7471 0.0153413 19.1235 0.00772124 17.7738C-0.00582552 15.5046 0.00348788 13.2362 0.00348788 10.967C0.00348788 9.42728 0.00348788 7.88673 0.00348788 6.29241V6.29156ZM9.99507 16.8913C10.2203 16.8913 10.4464 16.8955 10.6716 16.8913C11.1279 16.882 11.2803 16.7375 11.2896 16.287C11.2989 15.8256 11.293 15.3634 11.2913 14.9011C11.2896 14.5347 11.1127 14.312 10.7342 14.3019C10.2406 14.2893 9.747 14.2935 9.25339 14.3002C8.88085 14.3052 8.67934 14.4943 8.6785 14.8742C8.6785 15.1121 8.68104 15.3499 8.67765 15.5878C8.65987 16.919 8.62516 16.914 9.99507 16.8921V16.8913ZM16.3841 15.6172C16.3841 15.365 16.3849 15.1129 16.3841 14.8616C16.3824 14.5027 16.1876 14.3111 15.838 14.3019C15.3308 14.2884 14.8228 14.2901 14.3148 14.3019C13.9821 14.3094 13.7856 14.4994 13.7763 14.8288C13.7619 15.3465 13.7594 15.8651 13.778 16.382C13.7899 16.7114 13.9922 16.8879 14.33 16.8896C14.838 16.8921 15.3452 16.8921 15.8532 16.8896C16.1953 16.8879 16.3764 16.714 16.3832 16.3736C16.3883 16.1214 16.3841 15.8693 16.3849 15.618L16.3841 15.6172ZM15.0633 11.1897C15.3173 11.1897 15.5704 11.1872 15.8244 11.1897C16.2139 11.1939 16.3891 10.9989 16.3858 10.6199C16.3815 10.1442 16.3824 9.66848 16.3858 9.19363C16.3883 8.81459 16.1944 8.61708 15.8227 8.60868C15.33 8.59775 14.8363 8.59943 14.3436 8.60784C13.9677 8.61372 13.7755 8.81879 13.7721 9.19027C13.7687 9.66596 13.767 10.1417 13.7721 10.6165C13.7763 10.9855 13.96 11.1897 14.3444 11.1897C14.584 11.1897 14.8236 11.1897 15.0633 11.1897ZM9.9756 11.1897C10.2296 11.1897 10.4828 11.1872 10.7368 11.1897C11.1059 11.1947 11.2846 11.0031 11.2896 10.651C11.2973 10.1618 11.2956 9.67185 11.2905 9.18271C11.2871 8.83476 11.1093 8.62045 10.7537 8.6112C10.233 8.59691 9.71059 8.59607 9.19073 8.61372C8.85715 8.62465 8.68188 8.82383 8.68019 9.15917C8.6785 9.6626 8.67426 10.166 8.68273 10.6695C8.68866 11.0073 8.87916 11.1804 9.21614 11.1872C9.46929 11.1931 9.72329 11.188 9.97645 11.1889L9.9756 11.1897ZM4.90318 11.1914C5.79614 11.1914 6.24262 10.7448 6.24262 9.8517C6.24262 9.01966 5.81279 8.60364 4.95314 8.60364C4.07542 8.60364 3.63656 9.04207 3.63656 9.91894C3.63656 10.7667 4.05877 11.1905 4.90318 11.1905V11.1914ZM4.94721 16.8913C5.14448 16.8913 5.34176 16.8938 5.53903 16.8913C6.05297 16.8846 6.23161 16.7173 6.24008 16.2181C6.2477 15.7701 6.23923 15.3222 6.24177 14.8751C6.24431 14.4918 6.04196 14.3069 5.67027 14.3002C5.19105 14.2926 4.71184 14.2968 4.23262 14.2985C3.85754 14.3002 3.65434 14.4885 3.63995 14.8608C3.63063 15.0986 3.6391 15.3365 3.63571 15.5743C3.61455 16.9451 3.63402 16.9115 4.94721 16.8913Z" fill="white"/>
<path d="M16.311 0.768384C17.0722 0.768384 17.78 0.715436 18.476 0.780151C19.6503 0.890249 20.3996 1.76684 20.4021 2.93254C20.4038 3.58725 20.4021 4.24111 20.4021 4.91936H0.0667515C0.0667515 3.96293 -0.0153758 3.02162 0.0904583 2.10133C0.188672 1.24324 0.897338 0.76082 1.77364 0.756618C2.33753 0.754097 2.90141 0.762501 3.4653 0.768384C3.489 0.768384 3.51271 0.791077 3.58214 0.827216C3.58214 1.37519 3.57875 1.94585 3.58298 2.51652C3.58637 3.0107 3.82175 3.28553 4.22137 3.27964C4.61762 3.27376 4.84707 2.99557 4.8513 2.49719C4.85638 1.93829 4.85215 1.37855 4.85215 0.787715H15.0419C15.0419 1.255 15.0419 1.73742 15.0419 2.21984C15.0419 2.38793 15.03 2.55854 15.0537 2.72327C15.1045 3.07877 15.3907 3.31242 15.7319 3.27544C16.0883 3.23594 16.3 3.02919 16.3068 2.6678C16.3178 2.05343 16.3102 1.43906 16.3102 0.770065L16.311 0.768384Z" fill="white"/>
</g>
<defs>
<clipPath id="clip0_1_1651">
<rect width="20.4615" height="19" fill="white" transform="translate(0 0.747986)"/>
</clipPath>
</defs>
</svg>
