<svg width="27" height="27" viewBox="0 0 27 27" fill="none" xmlns="http://www.w3.org/2000/svg">
<g clip-path="url(#clip0_1_1577)">
<path d="M0.258301 14.9702V12.4288C0.332699 12.0541 0.409426 11.6795 0.479175 11.3036C1.65909 4.92398 7.78884 -0.251665 15.2857 0.912912C22.2175 1.99049 26.9104 8.07089 26.1851 15.0363C25.6213 20.4231 22.6163 24.0722 17.5606 25.9908C16.5144 26.3875 15.3647 26.5035 14.2627 26.7482H12.1795C11.918 26.7076 11.6552 26.6716 11.3948 26.6241C5.9219 25.6126 2.36161 22.4553 0.71399 17.152C0.495444 16.4445 0.407098 15.6975 0.258301 14.9702ZM21.4747 22.0911C26.1804 17.4072 26.1304 9.82007 21.4166 5.33692C16.5725 0.728484 9.0571 0.97787 4.56064 5.91688C0.131592 10.7886 0.802344 18.0614 5.08608 22.0876C6.28692 20.9613 7.80163 20.3859 9.29193 19.7677C9.59396 19.64 9.8835 19.4847 10.1568 19.3037C10.9647 18.7748 11.339 17.4107 10.8415 16.5837C10.2824 15.6557 9.66392 14.7521 9.02456 13.8729C8.57817 13.2605 8.45843 12.3743 8.95016 11.988C9.44188 11.6017 9.44305 11.176 9.34307 10.6599C9.27216 10.3014 9.22682 9.93839 9.13615 9.58577C8.86297 8.51399 9.18381 7.65215 10.0382 6.97707C10.2603 6.79548 10.5011 6.638 10.7566 6.5073C12.7596 5.52483 14.6312 5.81133 16.2656 7.31925C16.3327 7.38574 16.4115 7.43923 16.4981 7.477C17.4502 7.84238 17.5351 7.94098 17.4467 8.93272C17.3932 9.52429 17.2375 10.1077 17.2038 10.6993C17.1852 11.0473 17.1956 11.5113 17.3967 11.7502C18.0152 12.4914 18.0489 13.2581 17.3967 13.9959C17.1461 14.3077 16.9195 14.6381 16.719 14.9841C16.4865 15.3541 16.2935 15.7613 16.0215 16.1069C15.0613 17.3481 15.3612 18.8107 16.7527 19.5369C16.991 19.661 17.2363 19.7689 17.4851 19.8767C18.9033 20.4567 20.3029 21.0471 21.4747 22.0911Z" fill="#808080"/>
</g>
<defs>
<clipPath id="clip0_1_1577">
<rect width="26" height="26" fill="white" transform="translate(0.258301 0.748047)"/>
</clipPath>
</defs>
</svg>
